<svg width="32" height="34" viewBox="0 0 32 34" fill="none" xmlns="http://www.w3.org/2000/svg">
<path d="M28.2347 21.6912C28.0749 21.6437 28.0221 21.6987 28.076 21.856C28.5667 23.2835 28.9803 24.6682 29.3176 26.0098C29.6481 27.3305 29.6606 28.6696 29.3553 30.0274C29.3218 30.1774 29.4137 30.2769 29.5872 30.4084C30.3777 31.0087 31.1992 31.7254 31.0164 32.8476C30.9628 33.1773 30.7774 33.4497 30.386 33.5568C30.1907 33.6098 29.9605 33.6354 29.696 33.6342C25.8627 33.6155 20.6674 33.6071 14.1108 33.6084C12.5192 33.6084 11.605 33.586 11.3683 33.541C6.32752 32.6013 1.06182 21.1947 0.232422 16.7675C-0.428578 13.2432 0.0450182 7.06246 5.33452 7.89046C7.69602 8.47336 8.76073 11.4497 9.08423 13.5218C9.41473 15.6422 7.28782 18.1018 8.20172 24.5228C8.32082 25.3602 8.70772 25.2845 8.72362 24.6801C8.82112 20.9988 9.54792 17.5967 10.8527 14.1344C11.8817 11.4096 14.0431 7.75216 15.5562 5.09676C15.7626 4.73366 15.6274 4.30356 15.3323 3.94246C13.8333 2.12376 14.792 0.497131 16.7519 0.896931C18.6514 1.28503 18.6347 2.59657 19.6628 2.42367C21.3587 2.14187 22.3761 1.96725 22.7143 1.90035C23.8084 1.68185 24.2935 -0.348096 26.2913 0.0522041C26.8832 0.170704 26.4897 0.848956 26.3571 1.41256C26.0078 2.88376 26.7655 3.69476 27.7512 4.82686C28.8754 6.12346 29.3655 8.17542 28.9726 9.85152C28.6378 11.2794 27.8455 14.9188 28.1061 16.1768C28.3992 17.5876 30.2553 18.6796 30.0628 20.9458C29.9775 21.9668 28.9803 21.9114 28.2347 21.6912ZM25.6926 7.51583C26.4413 7.00303 27.7327 7.38908 27.4898 6.86068C27.085 5.96888 26.4381 4.93967 25.7641 4.19637C24.6421 2.95907 21.6518 3.6275 19.6962 4.5981C17.9566 5.4617 17.0745 6.32679 15.967 8.33639C15.5562 9.08139 15.1106 9.76737 14.841 10.4171C14.6304 10.9241 14.9054 11.8851 15.7524 11.0673C16.9512 9.90994 17.6941 8.35801 18.8081 7.21651C19.8275 6.17331 22.2168 4.85069 23.2855 6.57979C23.5788 7.05369 23.8189 7.37067 23.5315 7.86837C23.4249 8.05437 23.1811 8.09092 22.9419 8.12642C22.4937 8.19212 22.208 8.38323 22.7137 8.81893C23.4723 9.47263 25.1178 10.4479 26.0796 9.12191C26.3341 8.77031 25.9004 8.58575 25.5974 8.22445C25.4131 8.00565 25.4602 7.66833 25.6926 7.51583Z" fill="#4D3519"/>
</svg>
