<?xml version="1.0" encoding="UTF-8"?><svg xmlns="http://www.w3.org/2000/svg" width="50" height="50" fill="none" version="1.2" baseProfile="tiny-ps"><title>bevean_convertido</title><path fill="#FEEFE0" fill-rule="evenodd" d="m36.785 29.945.185.604c.183.615.351 1.223.501 1.822.161.643.245 1.302.251 1.972.005.498-.035.998-.118 1.498.32.257.63.545.88.894.388.545.608 1.19.479 1.985a1.774 1.774 0 0 1-.425.911c-.21.241-.494.425-.864.526a3.19 3.19 0 0 1-.871.103l-5.941-.018-7.588-.005c-1.437.005-2.294-.022-2.57-.074l-.053-.011c-2.127-.428-4.19-2.525-5.915-5.122-2.299-3.463-4.081-7.914-4.518-10.248-.226-1.209-.311-2.756-.085-4.2.168-1.072.506-2.099 1.077-2.92l.048-.065c.624-.867 1.493-1.497 2.672-1.717a5.532 5.532 0 0 1 1.88-.004l.087.018c1.165.286 2.032 1.045 2.665 1.995l.04.065c.628.968 1.016 2.137 1.225 3.158.875-2.03 2.237-4.407 3.356-6.362l.366-.64-.025-.032c-.506-.621-.77-1.253-.834-1.826a2.274 2.274 0 0 1 .27-1.395 2.16 2.16 0 0 1 1.072-.924c.485-.2 1.08-.256 1.74-.122 1.168.239 1.696.759 2.111 1.169.076.075-.047.164.044.149l1.763-.296.854-.153c.046-.01.223-.194.413-.393.689-.722 1.467-1.54 3.094-1.213l.116.03c.973.24 1.099.877.942 1.662-.028.156-.08.317-.132.48l-.072.247c-.173.733.289 1.263.907 1.972l.079.092c.594.686 1.02 1.561 1.243 2.48.224.921.249 1.9.041 2.784-.173.745-.494 2.191-.661 3.411-.098.717-.149 1.343-.087 1.64l.006.028c.063.259.298.599.55.962.613.885 1.296 1.87 1.163 3.444l-.004.033c-.013.139-.04.27-.076.395a1.667 1.667 0 0 1-.945 1.096 1.921 1.921 0 0 1-.336.115Z"></path><path fill="#4D3519" d="M35.538 28.869c-.139-.042-.184.006-.138.143.426 1.24.786 2.442 1.078 3.607a7.45 7.45 0 0 1 .033 3.488c-.029.13.05.217.202.331.686.521 1.4 1.144 1.24 2.118-.046.286-.207.523-.547.616-.17.046-.37.068-.599.067-3.329-.016-7.84-.023-13.533-.022-1.382 0-2.176-.02-2.381-.059-4.378-.816-8.95-10.72-9.67-14.565-.574-3.06-.163-8.427 4.43-7.708 2.05.506 2.975 3.09 3.256 4.89.287 1.841-1.56 3.977-.766 9.552.103.727.44.662.453.137.085-3.197.716-6.15 1.849-9.157.893-2.366 2.77-5.542 4.084-7.848.18-.315.062-.688-.194-1.002-1.302-1.58-.47-2.992 1.232-2.645 1.65.337 1.635 1.476 2.528 1.326 1.473-.245 2.356-.396 2.65-.454.95-.19 1.37-1.953 3.106-1.605.514.103.172.692.057 1.181-.303 1.278.354 1.982 1.21 2.965.976 1.126 1.402 2.908 1.06 4.363-.29 1.24-.978 4.4-.752 5.492.255 1.225 1.867 2.174 1.7 4.141-.075.887-.94.839-1.588.648Zm-2.207-12.31c.65-.445 1.771-.11 1.56-.568-.351-.774-.913-1.668-1.498-2.314-.974-1.074-3.571-.494-5.27.35-1.51.75-2.276 1.5-3.237 3.245-.357.647-.744 1.243-.978 1.807-.183.44.056 1.275.791.565 1.041-1.005 1.686-2.353 2.654-3.344.885-.906 2.96-2.054 3.888-.553.254.412.463.687.213 1.119-.092.161-.304.193-.512.224-.389.057-.637.223-.198.601.659.568 2.088 1.415 2.923.263.22-.305-.156-.465-.419-.779a.42.42 0 0 1 .083-.615Z"></path></svg>