<svg width="35" height="38" viewBox="0 0 35 38" fill="none" xmlns="http://www.w3.org/2000/svg">
<g id="Group 3">
<path id="Vector" fill-rule="evenodd" clip-rule="evenodd" d="M31.8468 25.1207L32.0594 25.8172C32.2706 26.5255 32.4639 27.2257 32.6368 27.9145C32.8222 28.6554 32.9191 29.4149 32.9259 30.186C32.9316 30.7602 32.8857 31.3358 32.7901 31.9109C33.1575 32.2074 33.5158 32.5385 33.8024 32.9408C34.25 33.5683 34.504 34.3109 34.3546 35.2271C34.2919 35.6098 34.1386 35.9709 33.8659 36.2762C33.6232 36.5537 33.2964 36.7652 32.8709 36.8814C32.5775 36.9639 32.2428 37.0014 31.8669 37L25.0252 36.9797L16.2868 36.9741C14.6323 36.9792 13.6444 36.9483 13.3278 36.889L13.2657 36.8761C10.8163 36.3837 8.44033 33.9686 6.45463 30.9769C3.80703 26.9894 1.75394 21.8632 1.25104 19.1749C0.990235 17.7831 0.892732 16.0012 1.15353 14.3375C1.34603 13.1042 1.73583 11.9216 2.39313 10.9747L2.44893 10.9007C3.16703 9.90242 4.16763 9.17725 5.52603 8.92355C6.16943 8.80285 6.89032 8.79322 7.69082 8.91842L7.79173 8.93893C9.13253 9.26853 10.1317 10.1436 10.8602 11.2369L10.9064 11.3121C11.6292 12.4269 12.0763 13.7727 12.3169 14.9483C13.3249 12.6103 14.893 9.87377 16.1822 7.62167L16.6035 6.88497L16.5748 6.84859C15.9926 6.13269 15.6873 5.40518 15.6139 4.74508C15.5484 4.15158 15.6615 3.60294 15.9263 3.13924C16.1975 2.66584 16.6193 2.29715 17.1596 2.07455C17.7181 1.84465 18.4043 1.77971 19.1629 1.93441C20.509 2.20911 21.1165 2.80811 21.5947 3.28011C21.682 3.36651 21.5411 3.4691 21.6449 3.4515L23.6759 3.1108L24.6598 2.93429C24.712 2.92319 24.9158 2.7112 25.1346 2.4819C25.928 1.6508 26.8246 0.709389 28.6981 1.08529L28.8313 1.12008C29.9518 1.39548 30.0967 2.12981 29.9161 3.03341C29.8846 3.21321 29.824 3.39937 29.7642 3.58627L29.6811 3.87081C29.4824 4.71501 30.0139 5.3259 30.7257 6.1423L30.8169 6.24764C31.5015 7.03824 31.9925 8.04619 32.2484 9.10409C32.5064 10.1651 32.535 11.2927 32.2964 12.3098C32.0962 13.1682 31.7269 14.8338 31.5344 16.2386C31.4216 17.0644 31.3635 17.7852 31.4346 18.1276L31.4409 18.1598C31.5134 18.4574 31.7847 18.8491 32.0747 19.2669C32.7811 20.2862 33.5674 21.4219 33.4141 23.2335L33.4098 23.2722C33.3945 23.4314 33.3633 23.5832 33.3214 23.7264C33.1337 24.3622 32.7377 24.7617 32.2331 24.989C32.1076 25.0454 31.9786 25.0888 31.8468 25.1207Z" fill="#FEEFE0"/>
<path id="Vector_2" d="M31.8468 25.1207L32.0594 25.8172C32.2706 26.5255 32.4639 27.2257 32.6368 27.9145C32.8222 28.6554 32.9191 29.4149 32.9259 30.186C32.9316 30.7602 32.8857 31.3358 32.7901 31.9109C33.1575 32.2074 33.5158 32.5385 33.8024 32.9408C34.25 33.5683 34.504 34.3109 34.3546 35.2271C34.2919 35.6098 34.1386 35.9709 33.8659 36.2762C33.6232 36.5537 33.2964 36.7652 32.8709 36.8814C32.5775 36.9639 32.2428 37.0014 31.8669 37L25.0252 36.9797L16.2868 36.9741C14.6323 36.9792 13.6444 36.9483 13.3278 36.889L13.2657 36.8761C10.8163 36.3837 8.44033 33.9686 6.45463 30.9769C3.80703 26.9894 1.75394 21.8632 1.25104 19.1749C0.990235 17.7831 0.892732 16.0012 1.15353 14.3375C1.34603 13.1042 1.73583 11.9216 2.39313 10.9747L2.44893 10.9007C3.16703 9.90242 4.16763 9.17725 5.52603 8.92355C6.16943 8.80285 6.89032 8.79322 7.69082 8.91842L7.79173 8.93893C9.13253 9.26853 10.1317 10.1436 10.8602 11.2369L10.9064 11.3121C11.6292 12.4269 12.0763 13.7727 12.3169 14.9483C13.3249 12.6103 14.893 9.87377 16.1822 7.62167L16.6035 6.88497L16.5748 6.84859C15.9926 6.13269 15.6873 5.40518 15.6139 4.74508C15.5484 4.15158 15.6615 3.60294 15.9263 3.13924C16.1975 2.66584 16.6193 2.29715 17.1596 2.07455C17.7181 1.84465 18.4043 1.77971 19.1629 1.93441C20.509 2.20911 21.1165 2.80811 21.5947 3.28011C21.682 3.36651 21.5411 3.4691 21.6449 3.4515L23.6759 3.1108L24.6598 2.93429C24.712 2.92319 24.9158 2.7112 25.1346 2.4819C25.928 1.6508 26.8246 0.709389 28.6981 1.08529L28.8313 1.12008C29.9518 1.39548 30.0967 2.12981 29.9161 3.03341C29.8846 3.21321 29.824 3.39937 29.7642 3.58627L29.6811 3.87081C29.4824 4.71501 30.0139 5.3259 30.7257 6.1423L30.8169 6.24764C31.5015 7.03824 31.9925 8.04619 32.2484 9.10409C32.5064 10.1651 32.535 11.2927 32.2964 12.3098C32.0962 13.1682 31.7269 14.8338 31.5344 16.2386C31.4216 17.0644 31.3635 17.7852 31.4346 18.1276L31.4409 18.1598C31.5134 18.4574 31.7847 18.8491 32.0747 19.2669C32.7811 20.2862 33.5674 21.4219 33.4141 23.2335L33.4098 23.2722C33.3945 23.4314 33.3633 23.5832 33.3214 23.7264C33.1337 24.3622 32.7377 24.7617 32.2331 24.989C32.1076 25.0454 31.9786 25.0888 31.8468 25.1207Z" stroke="white" stroke-width="0.72" stroke-miterlimit="22.9256"/>
<path id="Vector_3" d="M30.4108 23.8817C30.251 23.8342 30.1981 23.8892 30.252 24.0465C30.7427 25.474 31.1564 26.8587 31.4937 28.2003C31.8242 29.521 31.8366 30.8601 31.5313 32.2179C31.4978 32.3679 31.5897 32.4673 31.7632 32.5988C32.5537 33.1991 33.3752 33.9158 33.1924 35.038C33.1388 35.3677 32.9534 35.6402 32.562 35.7473C32.3667 35.8003 32.1366 35.8259 31.8721 35.8247C28.0388 35.806 22.8435 35.7975 16.2868 35.7988C14.6953 35.7988 13.781 35.7764 13.5443 35.7314C8.50354 34.7917 3.23785 23.3852 2.40845 18.958C1.74745 15.4337 2.22104 9.25289 7.51054 10.0809C9.87204 10.6638 10.9368 13.6401 11.2603 15.7122C11.5908 17.8326 9.46385 20.2922 10.3777 26.7132C10.4968 27.5506 10.8837 27.475 10.8996 26.8706C10.9971 23.1893 11.7239 19.7871 13.0287 16.3248C14.0577 13.6 16.2192 9.94259 17.7323 7.28719C17.9387 6.92409 17.8034 6.49399 17.5083 6.13289C16.0093 4.31419 16.968 2.68756 18.9279 3.08736C20.8274 3.47546 20.8108 4.787 21.8389 4.6141C23.5348 4.3323 24.5522 4.15768 24.8904 4.09078C25.9845 3.87228 26.4695 1.84233 28.4673 2.24263C29.0592 2.36113 28.6657 3.03939 28.5331 3.60299C28.1838 5.07419 28.9415 5.88519 29.9272 7.01729C31.0514 8.31389 31.5416 10.3659 31.1487 12.042C30.8139 13.4699 30.0216 17.1093 30.2822 18.3673C30.5753 19.7781 32.4313 20.87 32.2388 23.1362C32.1535 24.1572 31.1564 24.1019 30.4108 23.8817ZM27.8687 9.70626C28.6174 9.19346 29.9087 9.57951 29.6658 9.05111C29.261 8.15931 28.6142 7.1301 27.9402 6.3868C26.8182 5.1495 23.8279 5.81793 21.8723 6.78853C20.1327 7.65213 19.2506 8.51722 18.1431 10.5268C17.7323 11.2718 17.2866 11.9578 17.017 12.6075C16.8064 13.1145 17.0815 14.0756 17.9285 13.2578C19.1273 12.1004 19.8701 10.5484 20.9841 9.40694C22.0035 8.36374 24.3928 7.04112 25.4615 8.77022C25.7548 9.24412 25.995 9.5611 25.7076 10.0588C25.601 10.2448 25.3572 10.2814 25.118 10.3169C24.6698 10.3826 24.3841 10.5737 24.8898 11.0094C25.6484 11.6631 27.2938 12.6383 28.2556 11.3123C28.5101 10.9607 28.0765 10.7762 27.7735 10.4149C27.5892 10.1961 27.6363 9.85876 27.8687 9.70626Z" fill="#4D3519"/>
</g>
</svg>
