<svg width="160" height="37" viewBox="0 0 160 37" fill="none" xmlns="http://www.w3.org/2000/svg">
<path fill-rule="evenodd" clip-rule="evenodd" d="M32.1811 24.7208L32.3937 25.4173C32.6049 26.1256 32.7982 26.8258 32.9711 27.5146C33.1565 28.2555 33.2534 29.015 33.2602 29.7861C33.2659 30.3603 33.22 30.9358 33.1244 31.5109C33.4918 31.8074 33.8501 32.1386 34.1367 32.5409C34.5843 33.1684 34.8383 33.911 34.6889 34.8272C34.6262 35.2099 34.4729 35.571 34.2002 35.8763C33.9575 36.1538 33.6307 36.3653 33.2052 36.4815C32.9118 36.564 32.5771 36.6015 32.2012 36.6001L25.3595 36.5798L16.6211 36.5742C14.9666 36.5793 13.9787 36.5484 13.6621 36.4891L13.6 36.4762C11.1506 35.9838 8.77462 33.5687 6.78892 30.577C4.14132 26.5895 2.08822 21.4633 1.58532 18.775C1.32452 17.3832 1.22702 15.6013 1.48782 13.9376C1.68032 12.7043 2.07011 11.5217 2.72741 10.5748L2.78322 10.5008C3.50132 9.50252 4.50192 8.77734 5.86032 8.52364C6.50372 8.40294 7.22461 8.39332 8.02511 8.51852L8.12602 8.53902C9.46682 8.86862 10.466 9.7437 11.1945 10.837L11.2407 10.9122C11.9635 12.027 12.4106 13.3728 12.6512 14.5484C13.6592 12.2104 15.2273 9.47386 16.5165 7.22176L16.9378 6.48507L16.9091 6.44869C16.3269 5.73279 16.0216 5.00528 15.9482 4.34518C15.8827 3.75168 15.9958 3.20304 16.2606 2.73934C16.5318 2.26594 16.9536 1.89724 17.4939 1.67464C18.0524 1.44474 18.7386 1.37981 19.4972 1.53451C20.8433 1.80921 21.4508 2.40821 21.929 2.88021C22.0163 2.96661 21.8754 3.0692 21.9792 3.0516L24.0102 2.7109L24.9941 2.53439C25.0463 2.52329 25.2501 2.31129 25.4689 2.08199C26.2623 1.25089 27.1589 0.309487 29.0324 0.685387L29.1656 0.720177C30.2861 0.995577 30.431 1.72991 30.2504 2.63351C30.2189 2.81331 30.1583 2.99946 30.0985 3.18636L30.0154 3.47091C29.8167 4.31511 30.3482 4.92599 31.06 5.74239L31.1512 5.84774C31.8358 6.63834 32.3268 7.64629 32.5827 8.70419C32.8407 9.76519 32.8693 10.8928 32.6307 11.9099C32.4305 12.7683 32.0612 14.4339 31.8687 15.8387C31.7559 16.6645 31.6978 17.3853 31.7689 17.7277L31.7752 17.7598C31.8477 18.0574 32.119 18.4492 32.409 18.867C33.1154 19.8863 33.9017 21.022 33.7484 22.8336L33.7441 22.8723C33.7288 23.0315 33.6976 23.1833 33.6557 23.3265C33.468 23.9623 33.072 24.3618 32.5674 24.5891C32.4419 24.6455 32.3129 24.6889 32.1811 24.7208Z" fill="#FEEFE0"/>
<path d="M32.1811 24.7208L32.3937 25.4173C32.6049 26.1256 32.7982 26.8258 32.9711 27.5146C33.1565 28.2555 33.2534 29.015 33.2602 29.7861C33.2659 30.3603 33.22 30.9358 33.1244 31.5109C33.4918 31.8074 33.8501 32.1386 34.1367 32.5409C34.5843 33.1684 34.8383 33.911 34.6889 34.8272C34.6262 35.2099 34.4729 35.571 34.2002 35.8763C33.9575 36.1538 33.6307 36.3653 33.2052 36.4815C32.9118 36.564 32.5771 36.6015 32.2012 36.6001L25.3595 36.5798L16.6211 36.5742C14.9666 36.5793 13.9787 36.5484 13.6621 36.4891L13.6 36.4762C11.1506 35.9838 8.77462 33.5687 6.78892 30.577C4.14132 26.5895 2.08822 21.4633 1.58532 18.775C1.32452 17.3832 1.22702 15.6013 1.48782 13.9376C1.68032 12.7043 2.07011 11.5217 2.72741 10.5748L2.78322 10.5008C3.50132 9.50252 4.50192 8.77734 5.86032 8.52364C6.50372 8.40294 7.22461 8.39332 8.02511 8.51852L8.12602 8.53902C9.46682 8.86862 10.466 9.7437 11.1945 10.837L11.2407 10.9122C11.9635 12.027 12.4106 13.3728 12.6512 14.5484C13.6592 12.2104 15.2273 9.47386 16.5165 7.22176L16.9378 6.48507L16.9091 6.44869C16.3269 5.73279 16.0216 5.00528 15.9482 4.34518C15.8827 3.75168 15.9958 3.20304 16.2606 2.73934C16.5318 2.26594 16.9536 1.89724 17.4939 1.67464C18.0524 1.44474 18.7386 1.37981 19.4972 1.53451C20.8433 1.80921 21.4508 2.40821 21.929 2.88021C22.0163 2.96661 21.8754 3.0692 21.9792 3.0516L24.0102 2.7109L24.9941 2.53439C25.0463 2.52329 25.2501 2.31129 25.4689 2.08199C26.2623 1.25089 27.1589 0.309487 29.0324 0.685387L29.1656 0.720177C30.2861 0.995577 30.431 1.72991 30.2504 2.63351C30.2189 2.81331 30.1583 2.99946 30.0985 3.18636L30.0154 3.47091C29.8167 4.31511 30.3482 4.92599 31.06 5.74239L31.1512 5.84774C31.8358 6.63834 32.3268 7.64629 32.5827 8.70419C32.8407 9.76519 32.8693 10.8928 32.6307 11.9099C32.4305 12.7683 32.0612 14.4339 31.8687 15.8387C31.7559 16.6645 31.6978 17.3853 31.7689 17.7277L31.7752 17.7598C31.8477 18.0574 32.119 18.4492 32.409 18.867C33.1154 19.8863 33.9017 21.022 33.7484 22.8336L33.7441 22.8723C33.7288 23.0315 33.6976 23.1833 33.6557 23.3265C33.468 23.9623 33.072 24.3618 32.5674 24.5891C32.4419 24.6455 32.3129 24.6889 32.1811 24.7208Z" stroke="white" stroke-width="0.72" stroke-miterlimit="22.9256"/>
<path d="M30.745 23.4818C30.5852 23.4343 30.5324 23.4893 30.5863 23.6466C31.077 25.0741 31.4906 26.4588 31.8279 27.8004C32.1584 29.1211 32.1709 30.4602 31.8656 31.818C31.8321 31.968 31.924 32.0674 32.0975 32.1989C32.888 32.7992 33.7095 33.5159 33.5267 34.6381C33.4731 34.9678 33.2877 35.2403 32.8963 35.3474C32.701 35.4004 32.4708 35.426 32.2063 35.4248C28.373 35.4061 23.1777 35.3976 16.6211 35.3989C15.0295 35.3989 14.1153 35.3765 13.8786 35.3315C8.83783 34.3918 3.57214 22.9853 2.74274 18.5581C2.08174 15.0338 2.55533 8.85299 7.84483 9.68099C10.2063 10.2639 11.271 13.2402 11.5945 15.3123C11.925 17.4327 9.79814 19.8923 10.712 26.3133C10.8311 27.1507 11.218 27.0751 11.2339 26.4707C11.3314 22.7894 12.0582 19.3872 13.363 15.9249C14.392 13.2001 16.5534 9.54269 18.0665 6.88729C18.2729 6.52419 18.1377 6.09409 17.8426 5.73299C16.3436 3.91429 17.3023 2.28766 19.2622 2.68746C21.1617 3.07556 21.145 4.38709 22.1731 4.21419C23.869 3.93239 24.8864 3.75778 25.2246 3.69088C26.3187 3.47238 26.8038 1.44243 28.8016 1.84273C29.3935 1.96123 29 2.63948 28.8674 3.20308C28.5181 4.67428 29.2758 5.48529 30.2615 6.61739C31.3857 7.91399 31.8758 9.96595 31.4829 11.642C31.1481 13.0699 30.3558 16.7094 30.6164 17.9674C30.9095 19.3782 32.7656 20.4701 32.5731 22.7363C32.4878 23.7573 31.4906 23.702 30.745 23.4818ZM28.2029 9.30636C28.9516 8.79356 30.243 9.17961 30.0001 8.65121C29.5953 7.75941 28.9484 6.7302 28.2744 5.9869C27.1524 4.7496 24.1621 5.41803 22.2065 6.38863C20.4669 7.25223 19.5848 8.11731 18.4773 10.1269C18.0665 10.8719 17.6209 11.5579 17.3513 12.2076C17.1407 12.7146 17.4157 13.6757 18.2627 12.8579C19.4615 11.7005 20.2044 10.1485 21.3184 9.00704C22.3378 7.96384 24.7271 6.64122 25.7958 8.37032C26.0891 8.84422 26.3292 9.1612 26.0418 9.6589C25.9352 9.8449 25.6914 9.88145 25.4522 9.91695C25.004 9.98265 24.7183 10.1738 25.224 10.6095C25.9826 11.2632 27.6281 12.2384 28.5899 10.9124C28.8444 10.5608 28.4107 10.3763 28.1077 10.015C27.9234 9.79617 27.9705 9.45886 28.2029 9.30636Z" fill="#4D3519"/>
<path d="M50.1907 22.1976C50.1907 23.7396 50.5394 24.9696 51.237 25.8876C51.9343 26.8053 52.8587 27.264 54.0087 27.264C55.1593 27.264 56.0769 26.8053 56.7626 25.8876C57.4477 24.9696 57.7904 23.7396 57.7904 22.1976C57.7904 20.6555 57.4539 19.4318 56.7807 18.5262C56.1078 17.6205 55.1837 17.1676 54.0087 17.1676C52.8587 17.1676 51.9343 17.6205 51.237 18.5262C50.5394 19.4318 50.1907 20.6555 50.1907 22.1976ZM50.1907 16.5433C50.729 15.2217 51.4757 14.2244 52.4301 13.5514C53.3845 12.8782 54.5595 12.5417 55.9547 12.5417C57.0559 12.5417 58.0656 12.7745 58.9835 13.2394C59.9014 13.7042 60.6846 14.3593 61.3334 15.2035C61.982 16.0479 62.4837 17.0639 62.8383 18.2506C63.1935 19.4379 63.371 20.7532 63.371 22.1976C63.371 23.6418 63.1935 24.9634 62.8383 26.1627C62.4837 27.362 61.9758 28.3839 61.315 29.2284C60.6542 30.0729 59.8707 30.7277 58.9651 31.1925C58.0597 31.6578 57.0559 31.8901 55.9547 31.8901C54.437 31.8901 53.1767 31.48 52.173 30.6602C51.1695 29.8402 50.4229 28.6349 49.9336 27.0437V31.3762H44.6467V5.3092H50.1907V16.5433ZM77.7565 20.8025C77.7078 19.6278 77.3645 18.6786 76.7287 17.957C76.0926 17.2353 75.26 16.8739 74.2319 16.8739C73.2038 16.8739 72.3534 17.2351 71.6804 17.957C71.0072 18.679 70.6461 19.6278 70.5973 20.8025H77.7565ZM73.9748 12.5417C75.2722 12.5417 76.4534 12.7439 77.5178 13.1475C78.5825 13.5512 79.4947 14.1205 80.253 14.8547C81.0115 15.5886 81.5997 16.4765 82.0156 17.5166C82.4311 18.5563 82.6395 19.7131 82.6395 20.9862C82.6395 21.402 82.6148 21.8553 82.5661 22.3445C82.5176 22.8338 82.4314 23.3235 82.3092 23.8131H70.9278C71.1969 24.8898 71.797 25.7406 72.7267 26.3649C73.6565 26.9884 74.8439 27.3009 76.2882 27.3009C77.0711 27.3009 77.8424 27.2211 78.601 27.0621C79.3595 26.9034 80.0084 26.6889 80.5469 26.4198V31.1191C78.9805 31.6332 77.3772 31.8901 75.7374 31.8901C74.0975 31.8901 72.6102 31.6572 71.2765 31.1925C69.9431 30.7277 68.8166 30.0669 67.8987 29.21C66.9809 28.3534 66.2705 27.3192 65.7694 26.1078C65.2679 24.8966 65.0168 23.5316 65.0168 22.0139C65.0168 20.5699 65.2251 19.266 65.641 18.1039C66.0565 16.9417 66.6504 15.9441 67.4214 15.1118C68.1924 14.2792 69.1349 13.6433 70.2487 13.2028C71.3621 12.7622 72.6045 12.5417 73.9748 12.5417ZM94.9781 31.3762H88.8099L82.2384 13.0559H88.1857L91.8943 26.75L95.6389 13.0559H101.55L94.9781 31.3762ZM113.778 20.8025C113.73 19.6278 113.386 18.6784 112.751 17.957C112.115 17.2355 111.282 16.8739 110.254 16.8739C109.226 16.8739 108.375 17.2351 107.702 17.957C107.029 18.679 106.668 19.6278 106.619 20.8025H113.778ZM109.997 12.5417C111.294 12.5417 112.475 12.7439 113.54 13.1475C114.604 13.5512 115.517 14.1208 116.275 14.8547C117.033 15.5883 117.622 16.4768 118.037 17.5166C118.453 18.5559 118.662 19.7131 118.662 20.9862C118.662 21.402 118.637 21.8556 118.588 22.3445C118.54 22.8335 118.453 23.3235 118.331 23.8131H106.95C107.219 24.8898 107.819 25.741 108.749 26.3649C109.678 26.9882 110.866 27.3009 112.31 27.3009C113.093 27.3009 113.864 27.2211 114.623 27.0621C115.382 26.9034 116.03 26.6889 116.569 26.4198V31.1191C115.002 31.6332 113.399 31.8901 111.759 31.8901C110.119 31.8901 108.632 31.6569 107.298 31.1925C105.965 30.7279 104.838 30.0669 103.921 29.21C103.003 28.3534 102.292 27.3188 101.791 26.1078C101.29 24.8968 101.039 23.5316 101.039 22.0139C101.039 20.5699 101.247 19.266 101.663 18.1039C102.078 16.9419 102.673 15.9441 103.444 15.1118C104.214 14.2792 105.157 13.6433 106.271 13.2028C107.384 12.7622 108.626 12.5417 109.997 12.5417ZM124.846 25.906C124.846 26.6155 125.073 27.1792 125.525 27.5946C125.977 28.0099 126.571 28.2188 127.306 28.2188C128.285 28.2188 129.106 27.8385 129.766 27.0807C130.426 26.323 130.757 25.3671 130.757 24.2168V23.5192C130.488 23.4214 130.175 23.3534 129.821 23.3174C129.467 23.2817 129.117 23.2623 128.775 23.2623C127.526 23.2623 126.559 23.4956 125.874 23.96C125.19 24.4242 124.846 25.0734 124.846 25.906ZM130.757 31.3762V27.6311C130.292 28.9528 129.538 29.9941 128.499 30.7521C127.46 31.51 126.253 31.8901 124.883 31.8901C124.075 31.8901 123.34 31.7487 122.68 31.468C122.02 31.1874 121.45 30.801 120.973 30.3115C120.496 29.8218 120.121 29.2336 119.853 28.549C119.585 27.8644 119.449 27.105 119.449 26.2731C119.449 24.5108 120.05 23.1208 121.248 22.1058C122.447 21.091 124.099 20.5822 126.204 20.5822C126.767 20.5822 127.434 20.6191 128.205 20.6925C128.976 20.7659 129.827 20.8881 130.757 21.0596V20.7659C130.757 18.6119 129.423 17.5349 126.755 17.5349C125.923 17.5349 125.023 17.6274 124.057 17.8102C123.09 17.9931 122.117 18.257 121.138 18.5996V13.9004C121.701 13.7042 122.289 13.5321 122.9 13.3861C123.511 13.2401 124.13 13.1168 124.754 13.019C125.379 12.9212 125.991 12.8407 126.59 12.7804C127.189 12.7202 127.746 12.6886 128.26 12.6886C130.781 12.6886 132.752 13.3617 134.171 14.708C135.591 16.0542 136.301 17.9159 136.301 20.2886V31.3762H130.757ZM138.341 31.3762V13.0559H143.885V16.9474C144.374 15.5033 145.109 14.4019 146.088 13.6433C147.066 12.8844 148.266 12.5051 149.685 12.5051C151.668 12.5051 153.217 13.2039 154.33 14.5979C155.443 15.9917 156 17.9408 156 20.4353V31.3762H150.456V21.2429C150.456 19.8967 150.174 18.8556 149.612 18.1222C149.05 17.3893 148.254 17.0208 147.226 17.0208C146.198 17.0208 145.383 17.4015 144.784 18.1592C144.186 18.9165 143.885 19.9972 143.885 21.3898V31.3762H138.341Z" fill="#FEEFE0"/>
<path d="M158.702 30.7236L158.484 30.3197H158.346V30.7236H158.124V29.7013H158.492C158.761 29.7013 158.896 29.8032 158.896 30.0079C158.896 30.0795 158.878 30.1412 158.844 30.1934C158.809 30.2453 158.757 30.279 158.689 30.2942L158.924 30.7236H158.702ZM158.497 29.8776H158.346V30.151H158.497C158.611 30.151 158.669 30.1052 158.669 30.0131C158.669 29.9226 158.611 29.8776 158.497 29.8776ZM157.813 30.8964C157.625 30.7082 157.531 30.48 157.531 30.2124C157.531 29.9447 157.625 29.7166 157.813 29.5275C158.002 29.3382 158.23 29.2434 158.497 29.2434C158.765 29.2434 158.993 29.3379 159.182 29.526C159.372 29.7143 159.466 29.9434 159.466 30.2124C159.466 30.48 159.372 30.7082 159.182 30.8964C158.993 31.0846 158.765 31.1787 158.497 31.1787C158.23 31.1787 158.002 31.0846 157.813 30.8964ZM157.725 30.2124C157.725 30.4255 157.801 30.6078 157.952 30.7594C158.102 30.911 158.284 30.9871 158.497 30.9871C158.71 30.9871 158.893 30.911 159.044 30.7594C159.196 30.6078 159.272 30.4255 159.272 30.2124C159.272 29.9978 159.196 29.8147 159.044 29.663C158.893 29.5112 158.71 29.4353 158.497 29.4353C158.284 29.4353 158.102 29.5112 157.952 29.663C157.801 29.8147 157.725 29.9978 157.725 30.2124Z" fill="white"/>
</svg>
