<svg width="169" height="37" viewBox="0 0 169 37" fill="none" xmlns="http://www.w3.org/2000/svg">
<path d="M30.6235 23.8167C30.452 23.7657 30.3958 23.8246 30.4537 23.993C30.9787 25.5212 31.4214 27.0033 31.7823 28.4392C32.136 29.8529 32.1494 31.2859 31.8228 32.7391C31.7868 32.8998 31.8852 33.0064 32.0708 33.1472C32.917 33.7896 33.7963 34.5569 33.6007 35.758C33.5432 36.1105 33.3447 36.4023 32.9261 36.5168C32.7166 36.5735 32.4705 36.6011 32.1873 36.5996C28.0845 36.5797 22.5238 36.5708 15.506 36.5725C13.8027 36.5725 12.8239 36.5481 12.5707 36.5001C7.17531 35.4941 1.53941 23.2852 0.651615 18.5468C-0.0561854 14.7745 0.450913 8.15905 6.11261 9.04535C8.64021 9.66905 9.7798 12.8549 10.1259 15.0727C10.4796 17.3421 8.20341 19.9749 9.18141 26.8475C9.30891 27.7436 9.72282 27.6628 9.74012 27.0159C9.84442 23.0755 10.6222 19.4341 12.0188 15.7283C13.1201 12.8118 15.4335 8.89715 17.0532 6.05475C17.274 5.66645 17.1294 5.20612 16.8134 4.81952C15.2092 2.87302 16.2351 1.13208 18.333 1.55988C20.3657 1.97518 20.3479 3.37873 21.4486 3.19403C23.2636 2.89243 24.3527 2.70573 24.7147 2.63373C25.8856 2.40013 26.405 0.227449 28.5434 0.655949C29.1767 0.782749 28.7554 1.50864 28.6137 2.11164C28.2398 3.68624 29.0508 4.5545 30.1056 5.7663C31.3089 7.1537 31.8336 9.35043 31.4132 11.1442C31.0546 12.6725 30.2068 16.5679 30.4854 17.9144C30.7992 19.4244 32.7857 20.5932 32.5802 23.0187C32.4887 24.1118 31.4214 24.0525 30.6235 23.8167ZM27.9025 8.64435C28.7038 8.09555 30.086 8.5088 29.8261 7.9433C29.3927 6.9886 28.7004 5.88705 27.979 5.09125C26.7783 3.76705 23.5774 4.48253 21.4843 5.52143C19.6222 6.44573 18.678 7.37183 17.4928 9.52253C17.0532 10.3201 16.5764 11.054 16.2875 11.7496C16.0625 12.2922 16.3567 13.3209 17.2632 12.4455C18.5459 11.2068 19.3413 9.54567 20.5338 8.32367C21.6246 7.20727 24.1823 5.79185 25.3261 7.64215C25.6399 8.14965 25.897 8.48902 25.5894 9.02192C25.4752 9.22092 25.2141 9.25987 24.9584 9.29767C24.4785 9.36827 24.1727 9.57265 24.7141 10.0392C25.5259 10.7388 27.2871 11.7825 28.3164 10.3632C28.5893 9.98712 28.125 9.78947 27.8004 9.40277C27.6032 9.16837 27.6536 8.80735 27.9025 8.64435Z" fill="#4D3519"/>
<path d="M51.4366 22.4425C51.4366 24.0929 51.8099 25.4092 52.5565 26.3917C53.3029 27.3738 54.2922 27.8652 55.5233 27.8652C56.7547 27.8652 57.7369 27.3738 58.4705 26.3917C59.2041 25.4092 59.5709 24.0929 59.5709 22.4425C59.5709 20.792 59.2106 19.482 58.4903 18.5128C57.7697 17.5434 56.7807 17.0587 55.5233 17.0587C54.2922 17.0587 53.3029 17.5434 52.5565 18.5128C51.8099 19.482 51.4366 20.792 51.4366 22.4425ZM51.4366 16.3905C52.0129 14.9761 52.8119 13.9086 53.8335 13.188C54.8552 12.4678 56.1126 12.1074 57.6059 12.1074C58.7848 12.1074 59.8657 12.3564 60.8479 12.854C61.8304 13.3516 62.6686 14.0525 63.3631 14.9565C64.0573 15.8602 64.5941 16.9473 64.974 18.2178C65.3538 19.4886 65.544 20.8966 65.544 22.4425C65.544 23.9883 65.3538 25.4027 64.974 26.6863C64.5941 27.9702 64.0507 29.064 63.3432 29.9677C62.636 30.8717 61.7975 31.5723 60.8283 32.0698C59.8592 32.5678 58.7848 32.8164 57.6059 32.8164C55.9816 32.8164 54.6326 32.3777 53.5586 31.5C52.4843 30.6225 51.6852 29.3323 51.1613 27.6296V32.2666H45.5028V4.36609H51.4366V16.3905ZM80.9413 20.9492C80.8888 19.6918 80.5217 18.6759 79.8409 17.9038C79.1603 17.131 78.269 16.7444 77.1686 16.7444C76.0685 16.7444 75.158 17.1308 74.4377 17.9038C73.7172 18.6764 73.3308 19.6918 73.2784 20.9492H80.9413ZM76.8937 12.1074C78.2821 12.1074 79.5463 12.3237 80.6859 12.7557C81.8254 13.1877 82.8016 13.7975 83.6132 14.583C84.4253 15.3687 85.0546 16.3192 85.4997 17.432C85.9447 18.545 86.1678 19.7833 86.1678 21.1456C86.1678 21.5906 86.1411 22.0761 86.0893 22.5996C86.0374 23.1234 85.945 23.6475 85.814 24.1716H73.6321C73.9204 25.3239 74.5627 26.2348 75.5577 26.9026C76.553 27.5702 77.8237 27.9047 79.3695 27.9047C80.2077 27.9047 81.0331 27.8193 81.8452 27.6493C82.6571 27.4792 83.3513 27.2494 83.9278 26.9615V31.9913C82.2512 32.5418 80.5351 32.8164 78.7801 32.8164C77.0249 32.8164 75.433 32.5673 74.0055 32.0698C72.5782 31.5726 71.3726 30.8651 70.3901 29.9481C69.4079 29.0311 68.6474 27.9239 68.1108 26.6277C67.5742 25.3313 67.3055 23.8699 67.3055 22.2458C67.3055 20.7003 67.5283 19.3048 67.9733 18.0608C68.4184 16.8167 69.0542 15.7491 69.8793 14.8582C70.7045 13.9673 71.7134 13.2863 72.9053 12.8149C74.0973 12.3432 75.4267 12.1074 76.8937 12.1074ZM99.3741 32.2666H92.7722L85.7381 12.6576H92.1041L96.0732 27.3153L100.081 12.6576H106.408L99.3741 32.2666ZM119.497 20.9492C119.444 19.6918 119.077 18.6756 118.396 17.9038C117.716 17.1313 116.825 16.7444 115.724 16.7444C114.624 16.7444 113.714 17.1308 112.993 17.9038C112.273 18.6764 111.886 19.6918 111.834 20.9492H119.497ZM115.449 12.1074C116.838 12.1074 118.102 12.3237 119.241 12.7557C120.381 13.1877 121.357 13.7978 122.169 14.583C122.98 15.3684 123.61 16.3192 124.055 17.432C124.5 18.5447 124.723 19.7833 124.723 21.1456C124.723 21.5906 124.696 22.0763 124.644 22.5996C124.593 23.1232 124.5 23.6475 124.369 24.1716H112.188C112.476 25.3239 113.118 26.2352 114.113 26.9026C115.108 27.5699 116.379 27.9047 117.925 27.9047C118.763 27.9047 119.589 27.8193 120.4 27.6493C121.213 27.4792 121.907 27.2494 122.483 26.9615V31.9913C120.807 32.5418 119.091 32.8164 117.335 32.8164C115.58 32.8164 113.988 32.567 112.561 32.0698C111.134 31.5726 109.928 30.8651 108.946 29.9481C107.963 29.0311 107.203 27.9237 106.666 26.6277C106.13 25.3317 105.861 23.8699 105.861 22.2458C105.861 20.7003 106.084 19.3046 106.529 18.0608C106.973 16.8169 107.609 15.7491 108.435 14.8582C109.26 13.9673 110.269 13.2863 111.46 12.8149C112.652 12.3432 113.982 12.1074 115.449 12.1074ZM131.342 26.4114C131.342 27.1711 131.586 27.7746 132.07 28.219C132.553 28.6635 133.19 28.8872 133.976 28.8872C135.023 28.8872 135.902 28.4804 136.608 27.6687C137.315 26.8578 137.669 25.835 137.669 24.6036V23.8571C137.381 23.7522 137.046 23.6791 136.667 23.6411C136.288 23.6024 135.914 23.582 135.547 23.582C134.211 23.582 133.176 23.8318 132.443 24.3287C131.71 24.8256 131.342 25.5207 131.342 26.4114ZM137.669 32.2666V28.2582C137.172 29.6729 136.365 30.7872 135.253 31.5985C134.14 32.4098 132.849 32.8164 131.382 32.8164C130.517 32.8164 129.73 32.6654 129.024 32.365C128.318 32.0645 127.707 31.6509 127.197 31.1271C126.686 30.6033 126.286 29.9734 125.998 29.2406C125.711 28.5078 125.566 27.6949 125.566 26.8042C125.566 24.9181 126.209 23.4307 127.492 22.3441C128.775 21.2579 130.543 20.7131 132.797 20.7131C133.399 20.7131 134.113 20.7528 134.938 20.8313C135.763 20.9099 136.673 21.0408 137.669 21.2242V20.9099C137.669 18.6045 136.242 17.4519 133.386 17.4519C132.495 17.4519 131.531 17.5507 130.498 17.7463C129.464 17.9418 128.422 18.2246 127.374 18.5913V13.5615C127.976 13.3515 128.606 13.1675 129.26 13.0111C129.914 12.8549 130.577 12.7232 131.244 12.6183C131.912 12.5137 132.568 12.4275 133.209 12.3628C133.85 12.2982 134.447 12.2644 134.997 12.2644C137.695 12.2644 139.804 12.9852 141.324 14.4259C142.843 15.8667 143.603 17.8594 143.603 20.399V32.2666H137.669ZM145.787 32.2666V12.6576H151.72V16.8229C152.244 15.2775 153.03 14.0982 154.078 13.2864C155.126 12.4743 156.409 12.0684 157.929 12.0684C160.051 12.0684 161.709 12.816 162.9 14.3082C164.091 15.8001 164.688 17.8864 164.688 20.556V32.2666H158.754V21.4207C158.754 19.9799 158.452 18.8653 157.85 18.0806C157.249 17.2959 156.397 16.9014 155.296 16.9014C154.196 16.9014 153.324 17.3091 152.683 18.12C152.042 18.9308 151.72 20.0873 151.72 21.578V32.2666H145.787Z" fill="#4D3519"/>
<path d="M30.6235 23.8167C30.452 23.7657 30.3958 23.8246 30.4537 23.993C30.9787 25.5212 31.4214 27.0033 31.7823 28.4392C32.136 29.8529 32.1494 31.2859 31.8228 32.7391C31.7868 32.8998 31.8852 33.0064 32.0708 33.1472C32.917 33.7896 33.7963 34.5569 33.6007 35.758C33.5432 36.1105 33.3447 36.4023 32.9261 36.5168C32.7166 36.5735 32.4705 36.6011 32.1873 36.5996C28.0845 36.5797 22.5238 36.5708 15.506 36.5725C13.8027 36.5725 12.8239 36.5481 12.5707 36.5001C7.17531 35.4941 1.53941 23.2852 0.651615 18.5468C-0.0561854 14.7745 0.450913 8.15905 6.11261 9.04535C8.64021 9.66905 9.7798 12.8549 10.1259 15.0727C10.4796 17.3421 8.20341 19.9749 9.18141 26.8475C9.30891 27.7436 9.72282 27.6628 9.74012 27.0159C9.84442 23.0755 10.6222 19.4341 12.0188 15.7283C13.1201 12.8118 15.4335 8.89715 17.0532 6.05475C17.274 5.66645 17.1294 5.20612 16.8134 4.81952C15.2092 2.87302 16.2351 1.13208 18.333 1.55988C20.3657 1.97518 20.3479 3.37873 21.4486 3.19403C23.2636 2.89243 24.3527 2.70573 24.7147 2.63373C25.8856 2.40013 26.405 0.227449 28.5434 0.655949C29.1767 0.782749 28.7554 1.50864 28.6137 2.11164C28.2398 3.68624 29.0508 4.5545 30.1056 5.7663C31.3089 7.1537 31.8336 9.35043 31.4132 11.1442C31.0546 12.6725 30.2068 16.5679 30.4854 17.9144C30.7992 19.4244 32.7857 20.5932 32.5802 23.0187C32.4887 24.1118 31.4214 24.0525 30.6235 23.8167ZM27.9025 8.64435C28.7038 8.09555 30.086 8.5088 29.8261 7.9433C29.3927 6.9886 28.7004 5.88705 27.979 5.09125C26.7783 3.76705 23.5774 4.48253 21.4843 5.52143C19.6222 6.44573 18.678 7.37183 17.4928 9.52253C17.0532 10.3201 16.5764 11.054 16.2875 11.7496C16.0625 12.2922 16.3567 13.3209 17.2632 12.4455C18.5459 11.2068 19.3413 9.54567 20.5338 8.32367C21.6246 7.20727 24.1823 5.79185 25.3261 7.64215C25.6399 8.14965 25.897 8.48902 25.5894 9.02192C25.4752 9.22092 25.2141 9.25987 24.9584 9.29767C24.4785 9.36827 24.1727 9.57265 24.7141 10.0392C25.5259 10.7388 27.2871 11.7825 28.3164 10.3632C28.5893 9.98712 28.125 9.78947 27.8004 9.40277C27.6032 9.16837 27.6536 8.80735 27.9025 8.64435Z" fill="#4D3519"/>
<path d="M51.4366 22.4425C51.4366 24.0929 51.8099 25.4092 52.5565 26.3917C53.3029 27.3738 54.2922 27.8652 55.5233 27.8652C56.7547 27.8652 57.7369 27.3738 58.4705 26.3917C59.2041 25.4092 59.5709 24.0929 59.5709 22.4425C59.5709 20.792 59.2106 19.482 58.4903 18.5128C57.7697 17.5434 56.7807 17.0587 55.5233 17.0587C54.2922 17.0587 53.3029 17.5434 52.5565 18.5128C51.8099 19.482 51.4366 20.792 51.4366 22.4425ZM51.4366 16.3905C52.0129 14.9761 52.8119 13.9086 53.8335 13.188C54.8552 12.4678 56.1126 12.1074 57.6059 12.1074C58.7848 12.1074 59.8657 12.3564 60.8479 12.854C61.8304 13.3516 62.6686 14.0525 63.3631 14.9565C64.0573 15.8602 64.5941 16.9473 64.974 18.2178C65.3538 19.4886 65.544 20.8966 65.544 22.4425C65.544 23.9883 65.3538 25.4027 64.974 26.6863C64.5941 27.9702 64.0507 29.064 63.3432 29.9677C62.636 30.8717 61.7975 31.5723 60.8283 32.0698C59.8592 32.5678 58.7848 32.8164 57.6059 32.8164C55.9816 32.8164 54.6326 32.3777 53.5586 31.5C52.4843 30.6225 51.6852 29.3323 51.1613 27.6296V32.2666H45.5028V4.36609H51.4366V16.3905ZM80.9413 20.9492C80.8888 19.6918 80.5217 18.6759 79.8409 17.9038C79.1603 17.131 78.269 16.7444 77.1686 16.7444C76.0685 16.7444 75.158 17.1308 74.4377 17.9038C73.7172 18.6764 73.3308 19.6918 73.2784 20.9492H80.9413ZM76.8937 12.1074C78.2821 12.1074 79.5463 12.3237 80.6859 12.7557C81.8254 13.1877 82.8016 13.7975 83.6132 14.583C84.4253 15.3687 85.0546 16.3192 85.4997 17.432C85.9447 18.545 86.1678 19.7833 86.1678 21.1456C86.1678 21.5906 86.1411 22.0761 86.0893 22.5996C86.0374 23.1234 85.945 23.6475 85.814 24.1716H73.6321C73.9204 25.3239 74.5627 26.2348 75.5577 26.9026C76.553 27.5702 77.8237 27.9047 79.3695 27.9047C80.2077 27.9047 81.0331 27.8193 81.8452 27.6493C82.6571 27.4792 83.3513 27.2494 83.9278 26.9615V31.9913C82.2512 32.5418 80.5351 32.8164 78.7801 32.8164C77.0249 32.8164 75.433 32.5673 74.0055 32.0698C72.5782 31.5726 71.3726 30.8651 70.3901 29.9481C69.4079 29.0311 68.6474 27.9239 68.1108 26.6277C67.5742 25.3313 67.3055 23.8699 67.3055 22.2458C67.3055 20.7003 67.5283 19.3048 67.9733 18.0608C68.4184 16.8167 69.0542 15.7491 69.8793 14.8582C70.7045 13.9673 71.7134 13.2863 72.9053 12.8149C74.0973 12.3432 75.4267 12.1074 76.8937 12.1074ZM99.3741 32.2666H92.7722L85.7381 12.6576H92.1041L96.0732 27.3153L100.081 12.6576H106.408L99.3741 32.2666ZM119.497 20.9492C119.444 19.6918 119.077 18.6756 118.396 17.9038C117.716 17.1313 116.825 16.7444 115.724 16.7444C114.624 16.7444 113.714 17.1308 112.993 17.9038C112.273 18.6764 111.886 19.6918 111.834 20.9492H119.497ZM115.449 12.1074C116.838 12.1074 118.102 12.3237 119.241 12.7557C120.381 13.1877 121.357 13.7978 122.169 14.583C122.98 15.3684 123.61 16.3192 124.055 17.432C124.5 18.5447 124.723 19.7833 124.723 21.1456C124.723 21.5906 124.696 22.0763 124.644 22.5996C124.593 23.1232 124.5 23.6475 124.369 24.1716H112.188C112.476 25.3239 113.118 26.2352 114.113 26.9026C115.108 27.5699 116.379 27.9047 117.925 27.9047C118.763 27.9047 119.589 27.8193 120.4 27.6493C121.213 27.4792 121.907 27.2494 122.483 26.9615V31.9913C120.807 32.5418 119.091 32.8164 117.335 32.8164C115.58 32.8164 113.988 32.567 112.561 32.0698C111.134 31.5726 109.928 30.8651 108.946 29.9481C107.963 29.0311 107.203 27.9237 106.666 26.6277C106.13 25.3317 105.861 23.8699 105.861 22.2458C105.861 20.7003 106.084 19.3046 106.529 18.0608C106.973 16.8169 107.609 15.7491 108.435 14.8582C109.26 13.9673 110.269 13.2863 111.46 12.8149C112.652 12.3432 113.982 12.1074 115.449 12.1074ZM131.342 26.4114C131.342 27.1711 131.586 27.7746 132.07 28.219C132.553 28.6635 133.19 28.8872 133.976 28.8872C135.023 28.8872 135.902 28.4804 136.608 27.6687C137.315 26.8578 137.669 25.835 137.669 24.6036V23.8571C137.381 23.7522 137.046 23.6791 136.667 23.6411C136.288 23.6024 135.914 23.582 135.547 23.582C134.211 23.582 133.176 23.8318 132.443 24.3287C131.71 24.8256 131.342 25.5207 131.342 26.4114ZM137.669 32.2666V28.2582C137.172 29.6729 136.365 30.7872 135.253 31.5985C134.14 32.4098 132.849 32.8164 131.382 32.8164C130.517 32.8164 129.73 32.6654 129.024 32.365C128.318 32.0645 127.707 31.6509 127.197 31.1271C126.686 30.6033 126.286 29.9734 125.998 29.2406C125.711 28.5078 125.566 27.6949 125.566 26.8042C125.566 24.9181 126.209 23.4307 127.492 22.3441C128.775 21.2579 130.543 20.7131 132.797 20.7131C133.399 20.7131 134.113 20.7528 134.938 20.8313C135.763 20.9099 136.673 21.0408 137.669 21.2242V20.9099C137.669 18.6045 136.242 17.4519 133.386 17.4519C132.495 17.4519 131.531 17.5507 130.498 17.7463C129.464 17.9418 128.422 18.2246 127.374 18.5913V13.5615C127.976 13.3515 128.606 13.1675 129.26 13.0111C129.914 12.8549 130.577 12.7232 131.244 12.6183C131.912 12.5137 132.568 12.4275 133.209 12.3628C133.85 12.2982 134.447 12.2644 134.997 12.2644C137.695 12.2644 139.804 12.9852 141.324 14.4259C142.843 15.8667 143.603 17.8594 143.603 20.399V32.2666H137.669ZM145.787 32.2666V12.6576H151.72V16.8229C152.244 15.2775 153.03 14.0982 154.078 13.2864C155.126 12.4743 156.409 12.0684 157.929 12.0684C160.051 12.0684 161.709 12.816 162.9 14.3082C164.091 15.8001 164.688 17.8864 164.688 20.556V32.2666H158.754V21.4207C158.754 19.9799 158.452 18.8653 157.85 18.0806C157.249 17.2959 156.397 16.9014 155.296 16.9014C154.196 16.9014 153.324 17.3091 152.683 18.12C152.042 18.9308 151.72 20.0873 151.72 21.578V32.2666H145.787Z" fill="#4D3519"/>
<path d="M167.579 31.5681L167.346 31.1359H167.199V31.5681H166.961V30.4736H167.355C167.643 30.4736 167.787 30.5829 167.787 30.8021C167.787 30.8787 167.769 30.9447 167.731 31.0004C167.694 31.0562 167.639 31.0921 167.566 31.1086L167.818 31.5681H167.579ZM167.361 30.6625H167.199V30.9552H167.361C167.483 30.9552 167.544 30.906 167.544 30.8075C167.544 30.711 167.483 30.6625 167.361 30.6625ZM166.629 31.7529C166.427 31.5513 166.326 31.3074 166.326 31.021C166.326 30.7345 166.427 30.4901 166.629 30.2877C166.83 30.0853 167.074 29.9839 167.361 29.9839C167.647 29.9839 167.892 30.0848 168.094 30.2863C168.296 30.4878 168.398 30.7328 168.398 31.021C168.398 31.3074 168.296 31.5513 168.094 31.7529C167.892 31.9544 167.647 32.0552 167.361 32.0552C167.074 32.0552 166.83 31.9544 166.629 31.7529ZM166.534 31.021C166.534 31.2489 166.615 31.4442 166.776 31.6063C166.938 31.7687 167.133 31.8501 167.361 31.8501C167.588 31.8501 167.784 31.7687 167.946 31.6063C168.108 31.4442 168.19 31.2489 168.19 31.021C168.19 30.7912 168.108 30.595 167.946 30.4329C167.784 30.2705 167.588 30.1891 167.361 30.1891C167.133 30.1891 166.938 30.2705 166.776 30.4329C166.615 30.595 166.534 30.7912 166.534 31.021Z" fill="#4D3519"/>
</svg>
