<svg width="50" height="50" viewBox="0 0 50 50" fill="none" xmlns="http://www.w3.org/2000/svg">
<g id="Logo Bevean 3">
<g id="Group 3">
<path id="Vector" fill-rule="evenodd" clip-rule="evenodd" d="M36.7851 29.9446L36.9697 30.5495C37.1531 31.1645 37.321 31.7725 37.4711 32.3706C37.6321 33.0139 37.7162 33.6734 37.7221 34.343C37.7271 34.8416 37.6872 35.3413 37.6042 35.8407C37.9232 36.0982 38.2344 36.3857 38.4832 36.735C38.8719 37.2799 39.0924 37.9248 38.9627 38.7203C38.9083 39.0526 38.7752 39.3662 38.5384 39.6313C38.3276 39.8722 38.0438 40.0559 37.6744 40.1568C37.4196 40.2284 37.129 40.2609 36.8026 40.2597L30.8618 40.2421L23.274 40.2373C21.8373 40.2417 20.9795 40.2149 20.7046 40.1634L20.6507 40.1521C18.5238 39.7246 16.4606 37.6275 14.7364 35.0297C12.4374 31.5673 10.6547 27.1161 10.218 24.7817C9.99152 23.5732 9.90686 22.0259 10.1333 20.5813C10.3005 19.5104 10.6389 18.4835 11.2097 17.6613L11.2581 17.5971C11.8817 16.7302 12.7505 16.1005 13.9301 15.8802C14.4888 15.7754 15.1147 15.7671 15.8098 15.8758L15.8974 15.8936C17.0617 16.1798 17.9293 16.9396 18.5619 17.889L18.602 17.9543C19.2296 18.9223 19.6179 20.0909 19.8268 21.1117C20.7021 19.0816 22.0637 16.7053 23.1831 14.7498L23.549 14.1101L23.524 14.0785C23.0185 13.4569 22.7534 12.8251 22.6897 12.252C22.6328 11.7366 22.731 11.2602 22.9609 10.8576C23.1964 10.4465 23.5627 10.1263 24.0318 9.93306C24.5168 9.73343 25.1126 9.67704 25.7714 9.81137C26.9402 10.0499 27.4677 10.57 27.883 10.9799C27.9588 11.0549 27.8364 11.144 27.9265 11.1287L29.6901 10.8329L30.5445 10.6796C30.5898 10.67 30.7668 10.4859 30.9567 10.2868C31.6457 9.5651 32.4242 8.74766 34.051 9.07406L34.1667 9.10427C35.1396 9.34341 35.2655 9.98104 35.1087 10.7657C35.0813 10.9218 35.0287 11.0834 34.9768 11.2457L34.9046 11.4928C34.7321 12.2258 35.1936 12.7563 35.8117 13.4652L35.8908 13.5567C36.4853 14.2432 36.9116 15.1184 37.1338 16.037C37.3579 16.9583 37.3827 17.9374 37.1755 18.8206C37.0017 19.566 36.681 21.0123 36.5139 22.2321C36.4159 22.9492 36.3655 23.5751 36.4272 23.8724L36.4327 23.9003C36.4956 24.1587 36.7312 24.4989 36.983 24.8617C37.5964 25.7468 38.2792 26.7329 38.1461 28.3059L38.1423 28.3395C38.129 28.4778 38.1019 28.6096 38.0656 28.7339C37.9026 29.286 37.5587 29.6329 37.1206 29.8303C37.0116 29.8792 36.8996 29.9169 36.7851 29.9446Z" fill="#FEEFE0"/>
<path id="Vector_2" d="M36.7851 29.9446L36.9697 30.5495C37.1531 31.1645 37.321 31.7725 37.4711 32.3706C37.6321 33.0139 37.7162 33.6734 37.7221 34.343C37.7271 34.8416 37.6872 35.3413 37.6042 35.8407C37.9232 36.0982 38.2344 36.3857 38.4832 36.735C38.8719 37.2799 39.0924 37.9248 38.9627 38.7203C38.9083 39.0526 38.7752 39.3662 38.5384 39.6313C38.3276 39.8722 38.0438 40.0559 37.6744 40.1568C37.4196 40.2284 37.129 40.2609 36.8026 40.2597L30.8618 40.2421L23.274 40.2373C21.8373 40.2417 20.9795 40.2149 20.7046 40.1634L20.6507 40.1521C18.5238 39.7246 16.4606 37.6275 14.7364 35.0297C12.4374 31.5673 10.6547 27.1161 10.218 24.7817C9.99152 23.5732 9.90686 22.0259 10.1333 20.5813C10.3005 19.5104 10.6389 18.4835 11.2097 17.6613L11.2581 17.5971C11.8817 16.7302 12.7505 16.1005 13.9301 15.8802C14.4888 15.7754 15.1147 15.7671 15.8098 15.8758L15.8974 15.8936C17.0617 16.1798 17.9293 16.9396 18.5619 17.889L18.602 17.9543C19.2296 18.9223 19.6179 20.0909 19.8268 21.1117C20.7021 19.0816 22.0637 16.7053 23.1831 14.7498L23.549 14.1101L23.524 14.0785C23.0185 13.4569 22.7534 12.8251 22.6897 12.252C22.6328 11.7366 22.731 11.2602 22.9609 10.8576C23.1964 10.4465 23.5627 10.1263 24.0318 9.93306C24.5168 9.73343 25.1126 9.67704 25.7714 9.81137C26.9402 10.0499 27.4677 10.57 27.883 10.9799C27.9588 11.0549 27.8364 11.144 27.9265 11.1287L29.6901 10.8329L30.5445 10.6796C30.5898 10.67 30.7668 10.4859 30.9567 10.2868C31.6457 9.5651 32.4242 8.74766 34.051 9.07406L34.1667 9.10427C35.1396 9.34341 35.2655 9.98104 35.1087 10.7657C35.0813 10.9218 35.0287 11.0834 34.9768 11.2457L34.9046 11.4928C34.7321 12.2258 35.1936 12.7563 35.8117 13.4652L35.8908 13.5567C36.4853 14.2432 36.9116 15.1184 37.1338 16.037C37.3579 16.9583 37.3827 17.9374 37.1755 18.8206C37.0017 19.566 36.681 21.0123 36.5139 22.2321C36.4159 22.9492 36.3655 23.5751 36.4272 23.8724L36.4327 23.9003C36.4956 24.1587 36.7312 24.4989 36.983 24.8617C37.5964 25.7468 38.2792 26.7329 38.1461 28.3059L38.1423 28.3395C38.129 28.4778 38.1019 28.6096 38.0656 28.7339C37.9026 29.286 37.5587 29.6329 37.1206 29.8303C37.0116 29.8792 36.8996 29.9169 36.7851 29.9446Z" stroke="white" stroke-width="0.72" stroke-miterlimit="22.9256"/>
<path id="Vector_3" d="M35.5381 28.8688C35.3994 28.8276 35.3535 28.8753 35.4003 29.0119C35.8264 30.2514 36.1856 31.4538 36.4785 32.6188C36.7654 33.7656 36.7763 34.9283 36.5112 36.1073C36.4821 36.2376 36.5619 36.324 36.7126 36.4381C37.399 36.9594 38.1123 37.5817 37.9536 38.5562C37.907 38.8425 37.746 39.079 37.4062 39.172C37.2366 39.218 37.0367 39.2403 36.807 39.2392C33.4785 39.223 28.9673 39.2156 23.274 39.2168C21.892 39.2168 21.0981 39.1973 20.8926 39.1582C16.5155 38.3423 11.9432 28.4377 11.223 24.5934C10.649 21.5332 11.0603 16.1662 15.6533 16.8852C17.7038 17.3914 18.6284 19.9758 18.9093 21.7751C19.1962 23.6163 17.3494 25.752 18.143 31.3275C18.2464 32.0546 18.5823 31.989 18.5961 31.4641C18.6808 28.2676 19.3119 25.3134 20.4449 22.307C21.3384 19.9409 23.2152 16.7651 24.5291 14.4594C24.7083 14.1441 24.5909 13.7706 24.3346 13.4571C23.033 11.8778 23.8655 10.4654 25.5673 10.8125C27.2167 11.1495 27.2022 12.2884 28.0949 12.1382C29.5675 11.8936 30.451 11.7419 30.7446 11.6838C31.6947 11.4941 32.1159 9.73145 33.8506 10.079C34.3646 10.1819 34.0229 10.7709 33.9078 11.2603C33.6045 12.5378 34.2624 13.242 35.1183 14.225C36.0945 15.3509 36.5201 17.1327 36.1789 18.5881C35.8882 19.8279 35.2002 22.9881 35.4265 24.0805C35.681 25.3055 37.2927 26.2537 37.1255 28.2215C37.0515 29.108 36.1856 29.06 35.5381 28.8688ZM33.3308 16.5599C33.9809 16.1146 35.1022 16.4498 34.8913 15.991C34.5398 15.2167 33.9781 14.323 33.3929 13.6775C32.4186 12.6032 29.822 13.1836 28.1239 14.0264C26.6134 14.7763 25.8474 15.5274 24.8858 17.2724C24.5291 17.9193 24.1421 18.515 23.908 19.0791C23.7252 19.5194 23.964 20.3539 24.6994 19.6438C25.7404 18.6388 26.3855 17.2912 27.3528 16.3C28.2379 15.3942 30.3126 14.2457 31.2406 15.7471C31.4953 16.1586 31.7038 16.4339 31.4542 16.866C31.3617 17.0275 31.15 17.0593 30.9423 17.0901C30.5531 17.1472 30.305 17.3131 30.7441 17.6914C31.4028 18.2591 32.8317 19.1059 33.6668 17.9545C33.8878 17.6492 33.5112 17.4889 33.2481 17.1752C33.0881 16.9852 33.129 16.6923 33.3308 16.5599Z" fill="#4D3519"/>
</g>
</g>
</svg>
